PathFileType	4	(X/Y/Z)	imu.trc
DataRate	CameraRate	NumFrames	NumMarkers	Units	OrigDataRate	OrigDataStartFrame	OrigNumFrames
60	60	161	2	mm	60	414	1033
Frame#	Time	thigh calf
X1	Y1	Z1	X2	Y2	Z2

414	4.13	2.09721	4.81693	0.369552	0.828306	4.93852	5.3004	
415	4.14	2.11307	4.81987	0.390574	0.820403	4.93731	5.28258	
416	4.15	2.13199	4.82218	0.416556	0.813137	4.93561	5.26545	
417	4.16	2.15234	4.82368	0.446826	0.803813	4.93025	5.23624	
418	4.17	2.16441	4.82453	0.472193	0.801593	4.92695	5.22394	
419	4.18	2.15524	4.8249	0.479333	0.800103	4.92354	5.21232	
420	4.19	2.11709	4.82425	0.459814	0.797842	4.9203	5.20002	
421	4.2	2.04485	4.8231	0.408286	0.794013	4.91722	5.18622	
422	4.21	1.95714	4.82322	0.343399	0.782617	4.91119	5.15484	
423	4.22	1.87425	4.82508	0.285338	0.775365	4.90826	5.13717	
424	4.23	1.79398	4.82811	0.23106	0.765641	4.90534	5.11658	
425	4.24	1.70442	4.83238	0.167555	0.750883	4.90258	5.09039	
426	4.25	1.60132	4.83795	0.0893146	0.732071	4.9001	5.05934	
427	4.26	1.48976	4.84499	0.000632969	0.71162	4.89765	5.02601	
428	4.27	1.36351	4.85359	6.17895	0.670084	4.89233	4.95923	
429	4.28	1.21984	4.86479	6.05547	0.649811	4.88946	4.92652	
430	4.29	1.07495	4.87922	5.93044	0.629201	4.88632	4.89314	
431	4.3	0.957045	4.89586	5.83223	0.607267	4.88315	4.85829	
432	4.31	0.88787	4.91149	5.7824	0.582982	4.88024	4.82078	
433	4.32	0.872138	4.91814	5.77611	0.528776	4.87542	4.73926	
434	4.33	0.873506	4.9334	5.80367	0.500404	4.87343	4.69689	
435	4.34	0.891684	4.94189	5.83657	0.470078	4.87144	4.65254	
436	4.35	0.898991	4.95082	5.85761	0.437299	4.86914	4.60568	
437	4.36	0.883725	4.96152	5.85589	0.400693	4.8659	4.55494	
438	4.37001	0.867002	4.96785	5.84603	0.311583	4.85538	4.43739	
439	4.38001	0.789617	4.99172	5.7907	0.257213	4.8489	4.36839	
440	4.39001	0.729645	5.01143	5.74632	0.194936	4.84219	4.29071	
441	4.40001	0.67627	5.03207	5.70841	0.127104	4.83665	4.2063	
442	4.41001	0.636432	5.05098	5.68336	0.0619293	4.83415	4.12325	
443	4.42001	0.622418	5.05923	5.6763	6.24655	4.83852	3.98466	
444	4.43001	0.604217	5.07351	5.67102	6.22194	4.84452	3.93839	
445	4.44001	0.587792	5.0916	5.67166	6.21002	4.85183	3.90454	
446	4.45001	0.580935	5.09976	5.67226	6.20557	4.85953	3.87968	
447	4.46001	0.564826	5.11436	5.66739	6.20212	4.86678	3.85801	
448	4.47001	0.55652	5.12045	5.66312	6.20089	4.87374	3.84017	
449	4.48001	0.536432	5.13357	5.65059	6.20072	4.88807	3.80822	
450	4.49001	0.514043	5.14766	5.6349	6.19841	4.89542	3.79079	
451	4.50001	0.494584	5.16136	5.62101	6.19509	4.903	3.77361	
452	4.51001	0.480809	5.17305	5.61127	6.1971	4.91203	3.76215	
453	4.52001	0.47113	5.18271	5.60428	6.20459	4.92199	3.75764	
454	4.53001	0.463772	5.19061	5.59877	6.23839	4.94104	3.77508	
455	4.54001	0.457823	5.19712	5.59379	6.26283	4.9509	3.79758	
456	4.55001	0.451801	5.20311	5.58806	6.28303	4.96002	3.81849	
457	4.56001	0.444526	5.20935	5.58071	0.0108494	4.96731	3.83296	
458	4.57001	0.435768	5.21632	5.57164	0.010836	4.97256	3.83905	
459	4.58001	0.426513	5.22386	5.56187	6.26746	4.97729	3.83274	
460	4.59001	0.422371	5.22749	5.55728	6.25141	4.97773	3.83066	
461	4.60001	0.413405	5.23677	5.54597	6.23656	4.97742	3.83214	
462	4.61001	0.410557	5.24076	5.54066	6.22432	4.9775	3.8384	
463	4.62001	0.409167	5.24361	5.53547	6.21668	4.97908	3.85085	
464	4.63001	0.408089	5.24561	5.52924	6.21617	4.98738	3.89575	
465	4.64001	0.406259	5.24706	5.52116	6.2262	4.99406	3.93056	
466	4.65001	0.403042	5.24831	5.51109	6.24276	5.00238	3.9734	
467	4.66001	0.399584	5.24915	5.50047	6.26482	5.0127	4.02345	
468	4.67001	0.397144	5.24949	5.49069	0.003495	5.02412	4.07559	
469	4.68001	0.396136	5.24972	5.48245	0.0226257	5.03587	4.12657	
470	4.69001	0.396584	5.25058	5.47597	0.0546215	5.0599	4.22675	
471	4.70001	0.399438	5.25294	5.47119	0.0710353	5.07176	4.2788	
472	4.71001	0.40261	5.25502	5.47002	0.0886437	5.0841	4.33272	
473	4.72001	0.407083	5.25746	5.46888	0.106886	5.09804	4.38724	
474	4.73001	0.412023	5.25976	5.46797	0.124578	5.11368	4.44143	
475	4.74001	0.41719	5.2617	5.46689	0.152395	5.14962	4.54325	
476	4.75001	0.421776	5.26303	5.46464	0.161187	5.16874	4.58968	
477	4.76001	0.424789	5.26444	5.46051	0.166964	5.18716	4.63383	
478	4.77001	0.424357	5.26707	5.45317	0.170185	5.20367	4.67574	
479	4.78001	0.419494	5.27148	5.44259	0.17152	5.21669	4.71622	
480	4.79001	0.411864	5.27651	5.42986	0.173899	5.22951	4.79626	
481	4.80001	0.40406	5.28002	5.41466	0.17943	5.22808	4.83936	
482	4.81002	0.39906	5.28073	5.39971	0.188908	5.22366	4.88476	
483	4.82002	0.397924	5.27923	5.38707	0.202152	5.21783	4.93253	
484	4.83002	0.399173	5.27667	5.37601	0.222394	5.20997	4.99136	
485	4.84002	0.400181	5.27366	5.36426	0.260239	5.19869	5.08459	
486	4.85002	0.398297	5.27199	5.35001	0.281685	5.19414	5.13442	
487	4.86002	0.393802	5.27326	5.33675	0.302602	5.19049	5.18261	
488	4.87002	0.391115	5.27484	5.32943	0.32252	5.18742	5.22853	
489	4.88002	0.384394	5.27946	5.30723	0.340663	5.18442	5.27142	
490	4.89002	0.382996	5.27919	5.29408	0.356575	5.1814	5.31017	
491	4.90002	0.38349	5.27655	5.28314	0.38424	5.17667	5.37419	
492	4.91002	0.386028	5.27234	5.27464	0.396253	5.17559	5.39943	
493	4.92002	0.391091	5.26694	5.26842	0.406503	5.1754	5.41923	
494	4.93002	0.398169	5.26087	5.26353	0.413216	5.17641	5.43163	
495	4.94002	0.406867	5.25395	5.25963	0.416191	5.17834	5.43457	
496	4.95002	0.417923	5.24496	5.25806	0.412141	5.1838	5.4188	
497	4.96002	0.430433	5.23353	5.25923	0.40743	5.18746	5.40336	
498	4.97002	0.437049	5.22696	5.26078	0.403859	5.19294	5.38842	
499	4.98002	0.459089	5.20642	5.26887	0.403639	5.19939	5.37847	
500	4.99002	0.472313	5.19375	5.27308	0.406901	5.20475	5.37477	
501	5.00002	0.485168	5.18149	5.27567	0.410417	5.2088	5.37279	
502	5.01002	0.494264	5.1727	5.27536	0.391863	5.22025	5.34573	
503	5.02002	0.498156	5.16882	5.2742	0.370732	5.2296	5.3188	
504	5.03002	0.50704	5.1601	5.26793	0.348355	5.24082	5.28957	
505	5.04002	0.51137	5.15563	5.26217	0.327144	5.2529	5.26021	
506	5.05002	0.515323	5.15119	5.25601	0.302867	5.27073	5.21531	
507	5.06002	0.52026	5.14574	5.25117	0.306571	5.27409	5.20623	
508	5.07002	0.52026	5.14574	5.25117	0.318938	5.27465	5.20443	
509	5.08002	0.534903	5.13021	5.24805	0.336549	5.27274	5.20702	
510	5.09002	0.544598	5.12126	5.24955	0.354016	5.26898	5.2096	
511	5.10002	0.549758	5.11692	5.25085	0.376161	5.26246	5.20485	
512	5.11002	0.560814	5.10863	5.25454	0.38069	5.26262	5.19773	
513	5.12002	0.572582	5.10121	5.2596	0.382055	5.26499	5.1885	
514	5.13002	0.586116	5.09446	5.26689	0.381993	5.26799	5.1786	
515	5.14002	0.612593	5.08447	5.2841	0.381556	5.27082	5.16875	
516	5.15002	0.622776	5.0809	5.29114	0.383164	5.27531	5.15224	
517	5.16002	0.64408	5.07295	5.30616	0.383164	5.27531	5.15224	
518	5.17002	0.666154	5.0635	5.322	0.39176	5.27684	5.14237	
519	5.18002	0.688876	5.05348	5.33832	0.398595	5.27522	5.13981	
520	5.19002	0.711181	5.04403	5.35416	0.406223	5.27255	5.13805	
521	5.20002	0.733612	5.03542	5.37003	0.414458	5.26919	5.13707	
522	5.21002	0.75784	5.02741	5.3875	0.423089	5.26554	5.13676	
523	5.22002	0.784212	5.01968	5.40704	0.442052	5.25657	5.13826	
524	5.23002	0.812566	5.01207	5.42868	0.452231	5.25131	5.14002	
525	5.24003	0.842403	5.00429	5.45201	0.462458	5.24582	5.14199	
526	5.25003	0.872027	4.99643	5.47549	0.472104	5.24052	5.14351	
527	5.26003	0.900095	4.98871	5.49754	0.488363	5.23164	5.14394	
528	5.27003	0.927126	4.981	5.51818	0.495327	5.22776	5.14299	
529	5.28003	0.953928	4.97339	5.53803	0.502132	5.22382	5.14165	
530	5.29003	0.981586	4.96588	5.55836	0.509439	5.2196	5.14026	
531	5.30003	1.01257	4.95867	5.58207	0.516989	5.21518	5.1388	
532	5.31003	1.04698	4.95185	5.60968	0.53129	5.20641	5.13435	
533	5.32003	1.08526	4.94542	5.64166	0.537262	5.20249	5.1309	
534	5.33003	1.12788	4.93918	5.67832	0.542809	5.19872	5.12687	
535	5.34003	1.1751	4.93284	5.71992	0.548018	5.19498	5.12246	
536	5.35003	1.22639	4.92674	5.76587	0.552917	5.1912	5.11769	
537	5.36003	1.28163	4.92119	5.81622	0.560709	5.18413	5.10621	
538	5.37003	1.34269	4.91612	5.87287	0.563608	5.18093	5.09967	
539	5.38003	1.41069	4.91187	5.93694	0.566104	5.17796	5.09287	
540	5.39003	1.48365	4.90894	6.00664	0.568194	5.17512	5.08579	
541	5.40003	1.55568	4.90767	6.07608	0.570151	5.17222	5.0786	
542	5.41003	1.61798	4.90797	6.13615	0.574161	5.16599	5.06433	
543	5.42003	1.66595	4.90897	6.18231	0.574161	5.16599	5.06433	
544	5.43003	1.69951	4.91003	6.2152	0.577316	5.16022	5.04924	
545	5.44003	1.72414	4.91164	6.24088	0.578438	5.15787	5.04122	
546	5.45003	1.74847	4.9134	6.26812	0.57896	5.15591	5.03268	
547	5.46003	1.78412	4.91456	0.0258647	0.579069	5.15406	5.02383	
548	5.47003	1.82933	4.91588	0.0779308	0.580268	5.14923	5.00726	
549	5.48003	1.88221	4.91804	0.139318	0.581526	5.14601	4.99951	
550	5.49003	1.93765	4.92142	0.205329	0.583053	5.14222	4.99188	
551	5.50003	1.99091	4.92596	0.272129	0.584737	5.13808	4.98417	
552	5.51003	2.03561	4.93128	0.333821	0.586351	5.13368	4.97619	
553	5.52003	2.06627	4.93667	0.384918	0.588389	5.1249	4.95808	
554	5.53003	2.08073	4.94148	0.422729	0.588735	5.12103	4.9479	
555	5.54003	2.07492	4.94514	0.443394	0.589067	5.11728	4.9375	
556	5.55003	2.05721	4.9477	0.453381	0.589455	5.11351	4.92748	
557	5.56003	2.03083	4.9488	0.454881	0.589735	5.10972	4.91749	
558	5.57003	1.99269	4.94858	0.444142	0.589752	5.10178	4.89712	
559	5.58003	1.93607	4.94703	0.413964	0.589482	5.0978	4.8865	
560	5.59003	1.85883	4.94443	0.362012	0.589069	5.09386	4.8754	
561	5.60003	1.76754	4.94192	0.294805	0.588396	5.08997	4.86365	
562	5.61003	1.68778	4.94221	0.237615	0.587488	5.0861	4.85143	
563	5.62003	1.64581	4.9448	0.216497	0.586635	5.08212	4.83884	
564	5.63003	1.63714	4.94899	0.226672	0.585792	5.07331	4.81264	
565	5.64003	1.63954	4.95457	0.246515	0.585896	5.06839	4.7994	
566	5.65003	1.63692	4.9609	0.260418	0.586314	5.06312	4.78612	
567	5.66003	1.62793	4.9668	0.267095	0.5873	5.05705	4.77299	
568	5.67003	1.61188	4.97137	0.266045	0.588374	5.05025	4.75936	
569	5.68004	1.58291	4.97415	0.251925	0.587143	5.03506	4.72729	
570	5.69004	1.56284	4.97495	0.239304	0.585116	5.02682	4.70951	
571	5.70004	1.48915	4.97614	0.188309	0.582271	5.01748	4.69068	
572	5.71004	1.44199	4.97738	0.156221	0.577877	5.00711	4.66986	
573	5.72004	1.4064	4.97903	0.135301	0.570813	4.99559	4.64584	
574	5.73004	1.38473	4.98079	0.127732	0.550806	4.97011	4.59103	
